<?xml version="1.0" encoding="utf-8"?>
<!-- Generator: Adobe Illustrator 20.1.0, SVG Export Plug-In . SVG Version: 6.00 Build 0)  -->
<svg version="1.1" id="Layer_1" xmlns="http://www.w3.org/2000/svg" xmlns:xlink="http://www.w3.org/1999/xlink" x="0px" y="0px"
	 viewBox="0 0 61 61" style="enable-background:new 0 0 61 61;" xml:space="preserve">
<style type="text/css">
	.st0{fill:#FFFFFF;}
</style>
<title>01_TUM</title>
<path class="st0" d="M30.5,61C13.7,61,0,47.3,0,30.5S13.7,0,30.5,0S61,13.7,61,30.5S47.3,61,30.5,61z M30.5,1C14.2,1,1,14.2,1,30.5
	S14.2,60,30.5,60S60,46.8,60,30.5S46.8,1,30.5,1z"/>
<path class="st0" d="M32.6,41.5c-0.3-0.1-0.6-0.1-1-0.2c-1.2-0.2-2.2-0.8-3.1-1.6c-0.6-0.6-1-1.5-1-2.4c0-0.4,0-0.8,0-1.1
	c0-2.4,0-4.8,0-7.2c0-0.1,0-0.1,0-0.2h-3c0-0.1,0-0.1,0-0.2c0-0.9,0-1.8,0-2.7c0-0.1,0.1-0.2,0.2-0.2l0,0c0.6-0.2,1.2-0.4,1.8-0.8
	c0.6-0.3,1.1-0.8,1.4-1.3c0.7-1,1.1-2.1,1.3-3.3c0-0.1,0-0.2,0.1-0.3l0,0h3.1v0.2c0,1.5,0,3,0,4.5c0,0.2,0,0.2,0.2,0.2h4.6
	c0.2,0,0.2,0,0.2,0.2c0,1.1,0,2.3,0,3.4c0,0.2-0.1,0.2-0.2,0.2h-4.8c0,0.1,0,0.1,0,0.2c0,2.3,0,4.5,0,6.8c0,0.3,0,0.7,0.2,1
	c0.3,0.5,0.7,0.9,1.2,1.1c0.6,0.2,1.2,0.3,1.8,0.2c0.9-0.1,1.7-0.5,2.5-1l0.2-0.1c0,0.1,0,0.1,0,0.2c0,1,0,2,0,3.1
	c0,0.1,0,0.2-0.2,0.2c-0.5,0.2-1,0.4-1.5,0.6c-0.8,0.3-1.6,0.4-2.5,0.5h-0.2L32.6,41.5z"/>
</svg>
