<?xml version="1.0" encoding="utf-8"?>
<!-- Generator: Adobe Illustrator 20.1.0, SVG Export Plug-In . SVG Version: 6.00 Build 0)  -->
<svg version="1.1" id="Layer_1" xmlns="http://www.w3.org/2000/svg" xmlns:xlink="http://www.w3.org/1999/xlink" x="0px" y="0px"
	 viewBox="0 0 61 61" style="enable-background:new 0 0 61 61;" xml:space="preserve">
<style type="text/css">
	.st0{fill:#FFFFFF;}
</style>
<title>01_TW</title>
<path class="st0" d="M30.5,61C13.7,61,0,47.3,0,30.5S13.7,0,30.5,0S61,13.7,61,30.5S47.3,61,30.5,61z M30.5,1C14.2,1,1,14.2,1,30.5
	S14.2,60,30.5,60S60,46.8,60,30.5S46.8,1,30.5,1z"/>
<path class="st0" d="M43.3,22.9c-1,0.4-2,0.7-3,0.8c1.1-0.6,1.9-1.7,2.3-2.9c-1,0.6-2.1,1-3.3,1.2c-1.9-2.1-5.2-2.2-7.3-0.3
	c-1.4,1.3-1.9,3.2-1.5,5c-4.1-0.2-7.9-2.2-10.5-5.4c-1.4,2.4-0.7,5.4,1.6,6.9c-0.8,0-1.6-0.2-2.3-0.6c0,0,0,0,0,0.1
	c0,2.4,1.7,4.5,4.1,5c-0.8,0.2-1.6,0.2-2.3,0.1c0.7,2.1,2.6,3.5,4.8,3.6c-1.8,1.4-4.1,2.2-6.4,2.2c-0.4,0-0.8,0-1.2-0.1
	c6.8,4.4,15.9,2.4,20.2-4.5c1.5-2.3,2.3-5.1,2.3-7.9c0-0.2,0-0.5,0-0.7C41.8,24.9,42.6,24,43.3,22.9z"/>
</svg>
