<?xml version="1.0" encoding="utf-8"?>
<!-- Generator: Adobe Illustrator 20.1.0, SVG Export Plug-In . SVG Version: 6.00 Build 0)  -->
<svg version="1.1" id="Layer_1" xmlns="http://www.w3.org/2000/svg" xmlns:xlink="http://www.w3.org/1999/xlink" x="0px" y="0px"
	 viewBox="0 0 61 61" style="enable-background:new 0 0 61 61;" xml:space="preserve">

<path class="st0" d="M30.5,61C13.7,61,0,47.3,0,30.5S13.7,0,30.5,0S61,13.7,61,30.5S47.3,61,30.5,61z M30.5,1C14.2,1,1,14.2,1,30.5
	S14.2,60,30.5,60S60,46.8,60,30.5S46.8,1,30.5,1z"/>
<path class="st1" d="M35.5,26.7h-3.4v-2.2c-0.1-0.5,0.3-0.9,0.8-1c0.1,0,0.1,0,0.2,0h2.4v-3.7h-3.4c-2.3-0.2-4.3,1.5-4.5,3.9
	c0,0.2,0,0.4,0,0.7v2.5h-2.1v3.8h2.1v10.7h4.5V30.5h3L35.5,26.7z"/>
</svg>
